<?xml version="1.0" standalone="no"?>
 <!DOCTYPE svg PUBLIC "-//W3C//DTD SVG 1.1//EN" 
 "http://www.w3.org/Graphics/SVG/1.1/DTD/svg11.dtd"> 
<svg xmlns="http://www.w3.org/2000/svg" version="1.1" 
    width="2.8702cm" height="1.6637cm" viewBox="0 0 11300 6550 ">
<title>SVG Picture created as TritLedSmdHysteresis-brd.svg date 2015/04/27 17:08:56 </title>
  <desc>Picture generated by PCBNEW </desc>
<g style="fill:#000000; fill-opacity:1;stroke:#000000; stroke-opacity:1;
stroke-linecap:round; stroke-linejoin:round; "
 transform="translate(0 0) scale(1 1)">
</g>
<g style="fill:#840000; fill-opacity:0.0; 
stroke:#840000; stroke-width:393.701; stroke-opacity:1; 
stroke-linecap:round; stroke-linejoin:round;">
</g>
<g style="fill:#840000; fill-opacity:1.0; 
stroke:#840000; stroke-width:393.701; stroke-opacity:1; 
stroke-linecap:round; stroke-linejoin:round;">
<circle cx="1269.69" cy="3777.56" r="133.15" /> 
<circle cx="1269.69" cy="4777.56" r="133.15" /> 
<circle cx="1269.69" cy="1027.56" r="133.15" /> 
<circle cx="1269.69" cy="2027.56" r="133.15" /> 
<polyline style="fill-rule:evenodd;"
points="6776,6020
6776,5534
7262,5534
7262,6020
6776,6020
" /> 
<polyline style="fill-rule:evenodd;"
points="6816,980
6816,574
7222,574
7222,980
6816,980
" /> 
</g>
<g style="fill:#840000; fill-opacity:1.0; 
stroke:#840000; stroke-width:800; stroke-opacity:1; 
stroke-linecap:round; stroke-linejoin:round;">
</g>
<g style="fill:#840000; fill-opacity:0.0; 
stroke:#840000; stroke-width:800; stroke-opacity:1; 
stroke-linecap:round; stroke-linejoin:round;">
<path d="M7019 1777
L7019 1777
" />
</g>
<g style="fill:#008400; fill-opacity:0.0; 
stroke:#008400; stroke-width:393.701; stroke-opacity:1; 
stroke-linecap:round; stroke-linejoin:round;">
</g>
<g style="fill:#008400; fill-opacity:1.0; 
stroke:#008400; stroke-width:393.701; stroke-opacity:1; 
stroke-linecap:round; stroke-linejoin:round;">
<polyline style="fill-rule:evenodd;"
points="2519,1732
2519,1732
2519,1732
2519,1732
2519,1732
" /> 
<polyline style="fill-rule:evenodd;"
points="2519,2322
2519,2322
2519,2322
2519,2322
2519,2322
" /> 
<polyline style="fill-rule:evenodd;"
points="4519,3732
4519,3732
4519,3732
4519,3732
4519,3732
" /> 
<polyline style="fill-rule:evenodd;"
points="4519,4322
4519,4322
4519,4322
4519,4322
4519,4322
" /> 
<polyline style="fill-rule:evenodd;"
points="2519,3732
2519,3732
2519,3732
2519,3732
2519,3732
" /> 
<polyline style="fill-rule:evenodd;"
points="2519,4322
2519,4322
2519,4322
2519,4322
2519,4322
" /> 
<polyline style="fill-rule:evenodd;"
points="4519,1732
4519,1732
4519,1732
4519,1732
4519,1732
" /> 
<polyline style="fill-rule:evenodd;"
points="4519,2322
4519,2322
4519,2322
4519,2322
4519,2322
" /> 
</g>
<g style="fill:#C2C2C2; fill-opacity:1.0; 
stroke:#C2C2C2; stroke-width:393.701; stroke-opacity:1; 
stroke-linecap:round; stroke-linejoin:round;">
<circle cx="3019.69" cy="777.559" r="39.3701" /> 
<circle cx="4519.69" cy="5777.56" r="39.3701" /> 
<circle cx="3519.69" cy="5027.56" r="39.3701" /> 
<circle cx="7019.69" cy="3027.56" r="39.3701" /> 
<circle cx="5269.69" cy="1527.56" r="39.3701" /> 
</g>
<g style="fill:#008400; fill-opacity:1.0; 
stroke:#008400; stroke-width:393.701; stroke-opacity:1; 
stroke-linecap:round; stroke-linejoin:round;">
</g>
<g style="fill:#008400; fill-opacity:0.0; 
stroke:#008400; stroke-width:393.701; stroke-opacity:1; 
stroke-linecap:round; stroke-linejoin:round;">
<path d="M4519 777
L3019 777
" />
<path d="M5519 777
L4519 777
" />
<path d="M7019 777
L5519 777
" />
<path d="M4519 1732
L4519 777
" />
<path d="M2519 777
L3019 777
" />
<path d="M2519 1732
L2519 777
" />
<path d="M6269 1777
L6019 2027
" />
<path d="M6019 2027
L6019 5777
" />
<path d="M6019 5777
L4519 5777
" />
<path d="M7019 1777
L6269 1777
" />
<path d="M4519 4277
L4519 4322
" />
<path d="M4519 5777
L4519 4277
" />
<path d="M2519 4277
L2519 4322
" />
<path d="M2519 5777
L2519 4277
" />
<path d="M4519 5777
L2519 5777
" />
</g>
<g style="fill:#008400; fill-opacity:0.0; 
stroke:#008400; stroke-width:236.22; stroke-opacity:1; 
stroke-linecap:round; stroke-linejoin:round;">
<path d="M2519 3027
L2519 3732
" />
<path d="M2519 2322
L2519 3027
" />
<path d="M3519 3027
L3519 5027
" />
<path d="M2519 3027
L3519 3027
" />
</g>
<g style="fill:#008400; fill-opacity:0.0; 
stroke:#008400; stroke-width:393.701; stroke-opacity:1; 
stroke-linecap:round; stroke-linejoin:round;">
<path d="M7019 5777
L7019 3027
" />
</g>
<g style="fill:#008400; fill-opacity:0.0; 
stroke:#008400; stroke-width:236.22; stroke-opacity:1; 
stroke-linecap:round; stroke-linejoin:round;">
<path d="M4519 3027
L4519 3732
" />
<path d="M4519 2322
L4519 3027
" />
<path d="M5269 3027
L5269 1527
" />
<path d="M4519 3027
L5269 3027
" />
</g>
<g style="fill:#FFFFFF; fill-opacity:0.0; 
stroke:#FFFFFF; stroke-width:393.701; stroke-opacity:1; 
stroke-linecap:round; stroke-linejoin:round;">
</g>
<g style="fill:#FFFFFF; fill-opacity:1.0; 
stroke:#FFFFFF; stroke-width:157.48; stroke-opacity:1; 
stroke-linecap:round; stroke-linejoin:round;">
<circle cx="3019.69" cy="777.559" r="-118.11" /> 
</g>
<g style="fill:#FFFFFF; fill-opacity:1.0; 
stroke:#FFFFFF; stroke-width:393.701; stroke-opacity:1; 
stroke-linecap:round; stroke-linejoin:round;">
</g>
<g style="fill:#FFFFFF; fill-opacity:1.0; 
stroke:#FFFFFF; stroke-width:157.48; stroke-opacity:1; 
stroke-linecap:round; stroke-linejoin:round;">
<circle cx="4519.69" cy="5777.56" r="-118.11" /> 
</g>
<g style="fill:#FFFFFF; fill-opacity:1.0; 
stroke:#FFFFFF; stroke-width:393.701; stroke-opacity:1; 
stroke-linecap:round; stroke-linejoin:round;">
</g>
<g style="fill:#FFFFFF; fill-opacity:1.0; 
stroke:#FFFFFF; stroke-width:157.48; stroke-opacity:1; 
stroke-linecap:round; stroke-linejoin:round;">
<circle cx="3519.69" cy="5027.56" r="-118.11" /> 
</g>
<g style="fill:#FFFFFF; fill-opacity:1.0; 
stroke:#FFFFFF; stroke-width:393.701; stroke-opacity:1; 
stroke-linecap:round; stroke-linejoin:round;">
</g>
<g style="fill:#FFFFFF; fill-opacity:1.0; 
stroke:#FFFFFF; stroke-width:157.48; stroke-opacity:1; 
stroke-linecap:round; stroke-linejoin:round;">
<circle cx="7019.69" cy="3027.56" r="-118.11" /> 
</g>
<g style="fill:#FFFFFF; fill-opacity:1.0; 
stroke:#FFFFFF; stroke-width:393.701; stroke-opacity:1; 
stroke-linecap:round; stroke-linejoin:round;">
</g>
<g style="fill:#FFFFFF; fill-opacity:1.0; 
stroke:#FFFFFF; stroke-width:157.48; stroke-opacity:1; 
stroke-linecap:round; stroke-linejoin:round;">
<circle cx="5269.69" cy="1527.56" r="-118.11" /> 
</g>
<g style="fill:#FFFFFF; fill-opacity:1.0; 
stroke:#FFFFFF; stroke-width:393.701; stroke-opacity:1; 
stroke-linecap:round; stroke-linejoin:round;">
</g>
<g style="fill:#FFFFFF; fill-opacity:1.0; 
stroke:#FFFFFF; stroke-width:320; stroke-opacity:1; 
stroke-linecap:round; stroke-linejoin:round;">
<circle cx="1269.69" cy="3777.56" r="-36.8504" /> 
</g>
<g style="fill:#FFFFFF; fill-opacity:1.0; 
stroke:#FFFFFF; stroke-width:393.701; stroke-opacity:1; 
stroke-linecap:round; stroke-linejoin:round;">
</g>
<g style="fill:#FFFFFF; fill-opacity:1.0; 
stroke:#FFFFFF; stroke-width:320; stroke-opacity:1; 
stroke-linecap:round; stroke-linejoin:round;">
<circle cx="1269.69" cy="4777.56" r="-36.8504" /> 
</g>
<g style="fill:#FFFFFF; fill-opacity:1.0; 
stroke:#FFFFFF; stroke-width:393.701; stroke-opacity:1; 
stroke-linecap:round; stroke-linejoin:round;">
</g>
<g style="fill:#FFFFFF; fill-opacity:1.0; 
stroke:#FFFFFF; stroke-width:320; stroke-opacity:1; 
stroke-linecap:round; stroke-linejoin:round;">
<circle cx="1269.69" cy="1027.56" r="-36.8504" /> 
</g>
<g style="fill:#FFFFFF; fill-opacity:1.0; 
stroke:#FFFFFF; stroke-width:393.701; stroke-opacity:1; 
stroke-linecap:round; stroke-linejoin:round;">
</g>
<g style="fill:#FFFFFF; fill-opacity:1.0; 
stroke:#FFFFFF; stroke-width:320; stroke-opacity:1; 
stroke-linecap:round; stroke-linejoin:round;">
<circle cx="1269.69" cy="2027.56" r="-36.8504" /> 
</g>
<g style="fill:#FFFFFF; fill-opacity:1.0; 
stroke:#FFFFFF; stroke-width:393.701; stroke-opacity:1; 
stroke-linecap:round; stroke-linejoin:round;">
<circle cx="7019.69" cy="5777.56" r="3.14961" /> 
<circle cx="7019.69" cy="777.559" r="3.14961" /> 
<circle cx="7019.69" cy="1777.56" r="3.14961" /> 
</g>
<g style="fill:#840000; fill-opacity:1.0; 
stroke:#840000; stroke-width:393.701; stroke-opacity:1; 
stroke-linecap:round; stroke-linejoin:round;">
<circle cx="1269.69" cy="3777.56" r="133.15" /> 
<circle cx="1269.69" cy="4777.56" r="133.15" /> 
<circle cx="1269.69" cy="1027.56" r="133.15" /> 
<circle cx="1269.69" cy="2027.56" r="133.15" /> 
<polyline style="fill-rule:evenodd;"
points="6776,6020
6776,5534
7262,5534
7262,6020
6776,6020
" /> 
</g>
<g style="fill:#840000; fill-opacity:1.0; 
stroke:#840000; stroke-width:240; stroke-opacity:1; 
stroke-linecap:round; stroke-linejoin:round;">
</g>
<g style="fill:#840000; fill-opacity:0.0; 
stroke:#840000; stroke-width:240; stroke-opacity:1; 
stroke-linecap:round; stroke-linejoin:round;">
<path d="M3019 3957
L3019 4297
" />
<path d="M3519 3957
L3519 4297
" />
<path d="M4019 3957
L4019 4297
" />
<path d="M4519 3957
L4519 4297
" />
<path d="M4519 1757
L4519 2097
" />
<path d="M4019 1757
L4019 2097
" />
<path d="M3519 1757
L3519 2097
" />
<path d="M3019 1757
L3019 2097
" />
</g>
<g style="fill:#840000; fill-opacity:0.0; 
stroke:#840000; stroke-width:393.701; stroke-opacity:1; 
stroke-linecap:round; stroke-linejoin:round;">
</g>
<g style="fill:#840000; fill-opacity:1.0; 
stroke:#840000; stroke-width:393.701; stroke-opacity:1; 
stroke-linecap:round; stroke-linejoin:round;">
<polyline style="fill-rule:evenodd;"
points="6816,980
6816,574
7222,574
7222,980
6816,980
" /> 
</g>
<g style="fill:#840000; fill-opacity:1.0; 
stroke:#840000; stroke-width:800; stroke-opacity:1; 
stroke-linecap:round; stroke-linejoin:round;">
</g>
<g style="fill:#840000; fill-opacity:0.0; 
stroke:#840000; stroke-width:800; stroke-opacity:1; 
stroke-linecap:round; stroke-linejoin:round;">
<path d="M7019 1777
L7019 1777
" />
</g>
<g style="fill:#840000; fill-opacity:0.0; 
stroke:#840000; stroke-width:393.701; stroke-opacity:1; 
stroke-linecap:round; stroke-linejoin:round;">
</g>
<g style="fill:#840000; fill-opacity:1.0; 
stroke:#840000; stroke-width:393.701; stroke-opacity:1; 
stroke-linecap:round; stroke-linejoin:round;">
<polyline style="fill-rule:evenodd;"
points="5224,3527
5224,3527
5224,3527
5224,3527
5224,3527
" /> 
<polyline style="fill-rule:evenodd;"
points="5814,3527
5814,3527
5814,3527
5814,3527
5814,3527
" /> 
<polyline style="fill-rule:evenodd;"
points="5224,2527
5224,2527
5224,2527
5224,2527
5224,2527
" /> 
<polyline style="fill-rule:evenodd;"
points="5814,2527
5814,2527
5814,2527
5814,2527
5814,2527
" /> 
<polyline style="fill-rule:evenodd;"
points="3224,5527
3224,5527
3224,5527
3224,5527
3224,5527
" /> 
<polyline style="fill-rule:evenodd;"
points="3814,5527
3814,5527
3814,5527
3814,5527
3814,5527
" /> 
<polyline style="fill-rule:evenodd;"
points="3724,527
3724,527
3724,527
3724,527
3724,527
" /> 
<polyline style="fill-rule:evenodd;"
points="4314,527
4314,527
4314,527
4314,527
4314,527
" /> 
<polyline style="fill-rule:evenodd;"
points="1724,5527
1724,5527
1724,5527
1724,5527
1724,5527
" /> 
<polyline style="fill-rule:evenodd;"
points="2314,5527
2314,5527
2314,5527
2314,5527
2314,5527
" /> 
<polyline style="fill-rule:evenodd;"
points="1724,2777
1724,2777
1724,2777
1724,2777
1724,2777
" /> 
<polyline style="fill-rule:evenodd;"
points="2314,2777
2314,2777
2314,2777
2314,2777
2314,2777
" /> 
</g>
<g style="fill:#C2C2C2; fill-opacity:1.0; 
stroke:#C2C2C2; stroke-width:393.701; stroke-opacity:1; 
stroke-linecap:round; stroke-linejoin:round;">
<circle cx="3019.69" cy="777.559" r="39.3701" /> 
<circle cx="4519.69" cy="5777.56" r="39.3701" /> 
<circle cx="3519.69" cy="5027.56" r="39.3701" /> 
<circle cx="7019.69" cy="3027.56" r="39.3701" /> 
<circle cx="5269.69" cy="1527.56" r="39.3701" /> 
</g>
<g style="fill:#840000; fill-opacity:1.0; 
stroke:#840000; stroke-width:393.701; stroke-opacity:1; 
stroke-linecap:round; stroke-linejoin:round;">
</g>
<g style="fill:#840000; fill-opacity:0.0; 
stroke:#840000; stroke-width:393.701; stroke-opacity:1; 
stroke-linecap:round; stroke-linejoin:round;">
<path d="M1269 1027
L519 1777
" />
<path d="M1269 1027
L1519 777
" />
<path d="M519 1777
L519 3027
" />
<path d="M519 3027
L1269 3777
" />
<path d="M1519 777
L3019 777
" />
<path d="M3019 1927
L3019 777
" />
<path d="M1269 5527
L1724 5527
" />
<path d="M1269 4777
L1269 5527
" />
<path d="M1269 2777
L1724 2777
" />
<path d="M1269 2027
L1269 2777
" />
<path d="M4519 5777
L4519 4127
" />
</g>
<g style="fill:#840000; fill-opacity:0.0; 
stroke:#840000; stroke-width:236.22; stroke-opacity:1; 
stroke-linecap:round; stroke-linejoin:round;">
<path d="M3519 5027
L3519 4127
" />
<path d="M6519 3027
L6519 3527
" />
<path d="M6519 2527
L6519 3027
" />
<path d="M6519 3527
L5814 3527
" />
<path d="M5814 2527
L6519 2527
" />
</g>
<g style="fill:#840000; fill-opacity:0.0; 
stroke:#840000; stroke-width:393.701; stroke-opacity:1; 
stroke-linecap:round; stroke-linejoin:round;">
<path d="M7019 3027
L6519 3027
" />
</g>
<g style="fill:#840000; fill-opacity:0.0; 
stroke:#840000; stroke-width:236.22; stroke-opacity:1; 
stroke-linecap:round; stroke-linejoin:round;">
<path d="M4519 527
L4314 527
" />
<path d="M4519 1527
L4519 527
" />
<path d="M4519 1927
L4519 1527
" />
<path d="M5269 1527
L4519 1527
" />
<path d="M4019 5527
L4019 4127
" />
<path d="M3814 5527
L4019 5527
" />
<path d="M4019 3527
L4019 4127
" />
<path d="M5224 3527
L4019 3527
" />
<path d="M4019 1927
L4019 1527
" />
<path d="M4019 2527
L4019 1927
" />
<path d="M5224 2527
L4019 2527
" />
<path d="M3019 5527
L3019 4127
" />
<path d="M2314 5527
L3019 5527
" />
<path d="M3019 5527
L3224 5527
" />
<path d="M3519 2777
L3519 1927
" />
<path d="M2314 2777
L3519 2777
" />
<path d="M3519 527
L3724 527
" />
<path d="M3519 1927
L3519 527
" />
</g>
<g style="fill:#FFFFFF; fill-opacity:0.0; 
stroke:#FFFFFF; stroke-width:393.701; stroke-opacity:1; 
stroke-linecap:round; stroke-linejoin:round;">
</g>
<g style="fill:#FFFFFF; fill-opacity:1.0; 
stroke:#FFFFFF; stroke-width:157.48; stroke-opacity:1; 
stroke-linecap:round; stroke-linejoin:round;">
<circle cx="3019.69" cy="777.559" r="-118.11" /> 
</g>
<g style="fill:#FFFFFF; fill-opacity:1.0; 
stroke:#FFFFFF; stroke-width:393.701; stroke-opacity:1; 
stroke-linecap:round; stroke-linejoin:round;">
</g>
<g style="fill:#FFFFFF; fill-opacity:1.0; 
stroke:#FFFFFF; stroke-width:157.48; stroke-opacity:1; 
stroke-linecap:round; stroke-linejoin:round;">
<circle cx="4519.69" cy="5777.56" r="-118.11" /> 
</g>
<g style="fill:#FFFFFF; fill-opacity:1.0; 
stroke:#FFFFFF; stroke-width:393.701; stroke-opacity:1; 
stroke-linecap:round; stroke-linejoin:round;">
</g>
<g style="fill:#FFFFFF; fill-opacity:1.0; 
stroke:#FFFFFF; stroke-width:157.48; stroke-opacity:1; 
stroke-linecap:round; stroke-linejoin:round;">
<circle cx="3519.69" cy="5027.56" r="-118.11" /> 
</g>
<g style="fill:#FFFFFF; fill-opacity:1.0; 
stroke:#FFFFFF; stroke-width:393.701; stroke-opacity:1; 
stroke-linecap:round; stroke-linejoin:round;">
</g>
<g style="fill:#FFFFFF; fill-opacity:1.0; 
stroke:#FFFFFF; stroke-width:157.48; stroke-opacity:1; 
stroke-linecap:round; stroke-linejoin:round;">
<circle cx="7019.69" cy="3027.56" r="-118.11" /> 
</g>
<g style="fill:#FFFFFF; fill-opacity:1.0; 
stroke:#FFFFFF; stroke-width:393.701; stroke-opacity:1; 
stroke-linecap:round; stroke-linejoin:round;">
</g>
<g style="fill:#FFFFFF; fill-opacity:1.0; 
stroke:#FFFFFF; stroke-width:157.48; stroke-opacity:1; 
stroke-linecap:round; stroke-linejoin:round;">
<circle cx="5269.69" cy="1527.56" r="-118.11" /> 
</g>
<g style="fill:#FFFFFF; fill-opacity:1.0; 
stroke:#FFFFFF; stroke-width:393.701; stroke-opacity:1; 
stroke-linecap:round; stroke-linejoin:round;">
</g>
<g style="fill:#FFFFFF; fill-opacity:1.0; 
stroke:#FFFFFF; stroke-width:320; stroke-opacity:1; 
stroke-linecap:round; stroke-linejoin:round;">
<circle cx="1269.69" cy="3777.56" r="-36.8504" /> 
</g>
<g style="fill:#FFFFFF; fill-opacity:1.0; 
stroke:#FFFFFF; stroke-width:393.701; stroke-opacity:1; 
stroke-linecap:round; stroke-linejoin:round;">
</g>
<g style="fill:#FFFFFF; fill-opacity:1.0; 
stroke:#FFFFFF; stroke-width:320; stroke-opacity:1; 
stroke-linecap:round; stroke-linejoin:round;">
<circle cx="1269.69" cy="4777.56" r="-36.8504" /> 
</g>
<g style="fill:#FFFFFF; fill-opacity:1.0; 
stroke:#FFFFFF; stroke-width:393.701; stroke-opacity:1; 
stroke-linecap:round; stroke-linejoin:round;">
</g>
<g style="fill:#FFFFFF; fill-opacity:1.0; 
stroke:#FFFFFF; stroke-width:320; stroke-opacity:1; 
stroke-linecap:round; stroke-linejoin:round;">
<circle cx="1269.69" cy="1027.56" r="-36.8504" /> 
</g>
<g style="fill:#FFFFFF; fill-opacity:1.0; 
stroke:#FFFFFF; stroke-width:393.701; stroke-opacity:1; 
stroke-linecap:round; stroke-linejoin:round;">
</g>
<g style="fill:#FFFFFF; fill-opacity:1.0; 
stroke:#FFFFFF; stroke-width:320; stroke-opacity:1; 
stroke-linecap:round; stroke-linejoin:round;">
<circle cx="1269.69" cy="2027.56" r="-36.8504" /> 
</g>
<g style="fill:#FFFFFF; fill-opacity:1.0; 
stroke:#FFFFFF; stroke-width:393.701; stroke-opacity:1; 
stroke-linecap:round; stroke-linejoin:round;">
<circle cx="7019.69" cy="5777.56" r="3.14961" /> 
<circle cx="7019.69" cy="777.559" r="3.14961" /> 
<circle cx="7019.69" cy="1777.56" r="3.14961" /> 
</g>
<g style="fill:#008484; fill-opacity:1.0; 
stroke:#008484; stroke-width:59.0551; stroke-opacity:1; 
stroke-linecap:round; stroke-linejoin:round;">
</g>
<g style="fill:#008484; fill-opacity:0.0; 
stroke:#008484; stroke-width:59.0551; stroke-opacity:1; 
stroke-linecap:round; stroke-linejoin:round;">
<path d="M6507 5167
L6507 5777
" />
<path d="M7019 5167
L6507 5167
" />
<path d="M8669 5727
L10969 5727
" />
<path d="M10969 5727
L10969 5827
" />
<path d="M10969 5827
L8669 5827
" />
<path d="M8669 5827
L8669 5777
" />
<path d="M8669 5777
L10969 5777
" />
<path d="M7619 5877
L7519 5877
" />
<path d="M7619 5677
L7519 5677
" />
<path d="M7619 5277
L8619 5277
" />
<path d="M7619 5277
L7619 6277
" />
<path d="M7619 6277
L8619 6277
" />
<path d="M8619 5677
L11019 5677
" />
<path d="M11019 5677
L11019 5877
" />
<path d="M11019 5877
L8619 5877
" />
<path d="M8619 6277
L8619 5277
" />
<circle cx="3019.69" cy="3327.56" r="50" /> 
<path d="M2769 3577
L4769 3577
" />
<path d="M2769 2277
L4769 2277
" />
<path d="M2769 3777
L4769 3777
" />
<path d="M2769 3777
L2769 2277
" />
<path d="M4769 3777
L4769 2277
" />
<path d="M6507 167
L6507 777
" />
<path d="M7019 167
L6507 167
" />
<path d="M8669 727
L10969 727
" />
<path d="M10969 727
L10969 827
" />
<path d="M10969 827
L8669 827
" />
<path d="M8669 827
L8669 777
" />
<path d="M8669 777
L10969 777
" />
<path d="M7619 677
L7469 677
" />
<path d="M7619 877
L7469 877
" />
<path d="M7619 1677
L7469 1677
" />
<path d="M7619 1877
L7469 1877
" />
<path d="M7619 277
L8619 277
" />
<path d="M7619 1277
L8619 1277
" />
<path d="M7619 1277
L7619 2277
" />
<path d="M7619 2277
L8619 2277
" />
<path d="M8619 1677
L11019 1677
" />
<path d="M11019 1677
L11019 1877
" />
<path d="M11019 1877
L8619 1877
" />
<path d="M8619 2277
L8619 1277
" />
<path d="M8619 1277
L8619 277
" />
<path d="M11019 877
L8619 877
" />
<path d="M11019 677
L11019 877
" />
<path d="M8619 677
L11019 677
" />
<path d="M7619 1277
L8619 1277
" />
<path d="M7619 277
L7619 1277
" />
<path d="M5716 3793
L5322 3793
" />
<path d="M5322 3261
L5716 3261
" />
<path d="M5716 2793
L5322 2793
" />
<path d="M5322 2261
L5716 2261
" />
<path d="M3716 5793
L3322 5793
" />
<path d="M3322 5261
L3716 5261
" />
<path d="M4216 793
L3822 793
" />
<path d="M3822 261
L4216 261
" />
<path d="M2216 5793
L1822 5793
" />
<path d="M1822 5261
L2216 5261
" />
<path d="M2216 3043
L1822 3043
" />
<path d="M1822 2511
L2216 2511
" />
</g>
<g style="fill:#C2C200; fill-opacity:0.0; 
stroke:#C2C200; stroke-width:59.0551; stroke-opacity:1; 
stroke-linecap:round; stroke-linejoin:round;">
<path d="M8297 5955
L7904 5955
" />
<path d="M8035 5768
L8297 5768
" />
<path d="M8072 5768
L8054 5749
L8035 5711
L8035 5655
L8054 5618
L8091 5599
L8297 5599
" />
<path d="M8297 2055
L7904 2055
L7904 1905
L7922 1868
L7941 1849
L7979 1830
L8035 1830
L8072 1849
L8091 1868
L8110 1905
L8110 2055
" />
<path d="M8297 1605
L8279 1643
L8260 1661
L8222 1680
L8110 1680
L8072 1661
L8054 1643
L8035 1605
L8035 1549
L8054 1511
L8072 1493
L8110 1474
L8222 1474
L8260 1493
L8279 1511
L8297 1549
L8297 1605
" />
<path d="M8035 1343
L8297 1268
L8110 1193
L8297 1118
L8035 1043
" />
<path d="M8279 743
L8297 780
L8297 855
L8279 893
L8241 911
L8091 911
L8054 893
L8035 855
L8035 780
L8054 743
L8091 724
L8129 724
L8166 911
" />
<path d="M8297 555
L8035 555
" />
<path d="M8110 555
L8072 537
L8054 518
L8035 480
L8035 443
" />
</g>
<g style="fill:#C2C200; fill-opacity:0.0; 
stroke:#C2C200; stroke-width:39.3701; stroke-opacity:1; 
stroke-linecap:round; stroke-linejoin:round;">
<path d="M19 27
L8769 27
" />
<path d="M19 6527
L19 27
" />
<path d="M8769 6527
L19 6527
" />
<path d="M8769 27
L8769 6527
" />
</g> 
</svg>
