<?xml version="1.0" standalone="no"?>
 <!DOCTYPE svg PUBLIC "-//W3C//DTD SVG 1.1//EN" 
 "http://www.w3.org/Graphics/SVG/1.1/DTD/svg11.dtd"> 
<svg xmlns="http://www.w3.org/2000/svg" version="1.1" 
    width="2.88798cm" height="1.6637cm" viewBox="0 0 11370 6550 ">
<title>SVG Picture created as TritLedSmdHysteresis-brd.svg date 2015/04/27 23:52:35 </title>
  <desc>Picture generated by PCBNEW </desc>
<g style="fill:#000000; fill-opacity:1;stroke:#000000; stroke-opacity:1;
stroke-linecap:round; stroke-linejoin:round; "
 transform="translate(0 0) scale(1 1)">
</g>
<g style="fill:#840084; fill-opacity:0.0; 
stroke:#840084; stroke-width:118.11; stroke-opacity:1; 
stroke-linecap:round; stroke-linejoin:round;">
<path d="M7867 4916
L7867 5254
" />
<path d="M8457 5085
L7867 5085
" />
<path d="M8457 5451
L8064 5451
" />
<path d="M8176 5451
L8120 5479
L8092 5507
L8064 5563
L8064 5619
" />
<path d="M8457 5816
L8064 5816
" />
<path d="M7867 5816
L7895 5788
L7923 5816
L7895 5844
L7867 5816
L7923 5816
" />
<path d="M8064 6013
L8064 6238
" />
<path d="M7867 6097
L8373 6097
L8429 6125
L8457 6182
L8457 6238
" />
</g>
<g style="fill:#840084; fill-opacity:0.0; 
stroke:#840084; stroke-width:39.3701; stroke-opacity:1; 
stroke-linecap:round; stroke-linejoin:round;">
<path d="M8673 1797
L8463 1797
" />
<path d="M8345 1652
L8332 1639
L8306 1626
L8240 1626
L8214 1639
L8201 1652
L8188 1679
L8188 1705
L8201 1744
L8358 1902
L8188 1902
" />
<path d="M8056 1889
L8056 1902
L8069 1928
L8083 1941
" />
<path d="M7807 1626
L7938 1626
L7951 1757
L7938 1744
L7912 1731
L7846 1731
L7820 1744
L7807 1757
L7794 1784
L7794 1849
L7807 1875
L7820 1889
L7846 1902
L7912 1902
L7938 1889
L7951 1875
" />
<path d="M8673 797
L8463 797
" />
<path d="M8568 902
L8568 692
" />
<path d="M8345 652
L8332 639
L8306 626
L8240 626
L8214 639
L8201 652
L8188 679
L8188 705
L8201 744
L8358 902
L8188 902
" />
<path d="M8056 889
L8056 902
L8069 928
L8083 941
" />
<path d="M7807 626
L7938 626
L7951 757
L7938 744
L7912 731
L7846 731
L7820 744
L7807 757
L7794 784
L7794 849
L7807 875
L7820 889
L7846 902
L7912 902
L7938 889
L7951 875
" />
</g>
<g style="fill:#840084; fill-opacity:0.0; 
stroke:#840084; stroke-width:118.11; stroke-opacity:1; 
stroke-linecap:round; stroke-linejoin:round;">
<path d="M632 5302
L632 5752
" />
<path d="M815 2819
L365 2819
" />
<path d="M590 3044
L590 2594
" />
</g>
<g style="fill:#840084; fill-opacity:0.0; 
stroke:#840084; stroke-width:59.0551; stroke-opacity:1; 
stroke-linecap:round; stroke-linejoin:round;">
<path d="M1840 4997
L840 4997
" />
<path d="M1340.55 3777.56 A600 600 0.0 0 0 956.485 3916.59 " />
<path d="M1738.55 3929.56 A599.256 599.256 0.0 0 0 1340.74 3778.3 " />
<path d="M950.551 4832.56 A599.27 599.27 0.0 0 0 1340.54 4976.83 " />
<path d="M1340.55 4977.56 A600 600 0.0 0 0 1724.62 4838.53 " />
<path d="M740.551 4377.56 A600 600 0.0 0 0 991.277 4865.42 " />
<path d="M980.551 3897.56 A600 600 0.0 0 0 740.551 4377.24 " />
<path d="M1708.55 4850.56 A599.294 599.294 0.0 0 0 1939.84 4377.73 " />
<path d="M1940.55 4377.56 A600 600 0.0 0 0 1709.12 3904.11 " />
<path d="M1340.55 4127.56 A250 250 0.0 0 0 1090.55 4377.56 " />
<path d="M1340.55 3977.56 A400 400 0.0 0 0 940.551 4377.56 " />
<path d="M1340.55 4627.56 A250 250 0.0 0 0 1590.55 4377.56 " />
<path d="M1340.55 4777.56 A400 400 0.0 0 0 1740.55 4377.56 " />
<path d="M540.551 4377.56 A800 800 0.0 0 0 827.391 4991.29 " />
<path d="M964.551 3672.56 A799 799 0.0 0 0 541.551 4377.18 " />
<path d="M1856.55 4987.56 A798.972 798.972 0.0 0 0 2139.52 4378.56 " />
<path d="M2140.55 4377.56 A800 800 0.0 0 0 1738.13 3683.35 " />
<path d="M1340.55 3577.56 A800 800 0.0 0 0 961.281 3673.18 " />
<path d="M1759.55 3696.56 A799.576 799.576 0.0 0 0 1340.59 3577.98 " />
<path d="M1840 2247
L840 2247
" />
<path d="M1340.55 1027.56 A600 600 0.0 0 0 956.485 1166.59 " />
<path d="M1738.55 1179.56 A599.256 599.256 0.0 0 0 1340.74 1028.3 " />
<path d="M950.551 2082.56 A599.27 599.27 0.0 0 0 1340.54 2226.83 " />
<path d="M1340.55 2227.56 A600 600 0.0 0 0 1724.62 2088.53 " />
<path d="M740.551 1627.56 A600 600 0.0 0 0 991.277 2115.42 " />
<path d="M980.551 1147.56 A600 600 0.0 0 0 740.551 1627.24 " />
<path d="M1708.55 2100.56 A599.294 599.294 0.0 0 0 1939.84 1627.73 " />
<path d="M1940.55 1627.56 A600 600 0.0 0 0 1709.12 1154.11 " />
<path d="M1340.55 1377.56 A250 250 0.0 0 0 1090.55 1627.56 " />
<path d="M1340.55 1227.56 A400 400 0.0 0 0 940.551 1627.56 " />
<path d="M1340.55 1877.56 A250 250 0.0 0 0 1590.55 1627.56 " />
<path d="M1340.55 2027.56 A400 400 0.0 0 0 1740.55 1627.56 " />
<path d="M540.551 1627.56 A800 800 0.0 0 0 827.391 2241.29 " />
<path d="M964.551 922.559 A799 799 0.0 0 0 541.551 1627.18 " />
<path d="M1856.55 2237.56 A798.972 798.972 0.0 0 0 2139.52 1628.56 " />
<path d="M2140.55 1627.56 A800 800 0.0 0 0 1738.13 933.347 " />
<path d="M1340.55 827.559 A800 800 0.0 0 0 961.281 923.178 " />
<path d="M1759.55 946.56 A799.576 799.576 0.0 0 0 1340.59 827.983 " />
<path d="M2856 2224
L2856 1830
" />
<path d="M2324 1830
L2324 2224
" />
<path d="M4856 4224
L4856 3830
" />
<path d="M4324 3830
L4324 4224
" />
<path d="M2856 4224
L2856 3830
" />
<path d="M2324 3830
L2324 4224
" />
<path d="M4856 2224
L4856 1830
" />
<path d="M4324 1830
L4324 2224
" />
</g>
<g style="fill:#840000; fill-opacity:0.0; 
stroke:#840000; stroke-width:59.0551; stroke-opacity:1; 
stroke-linecap:round; stroke-linejoin:round;">
<path d="M2268 5236
L1874 5236
L1874 5330
L1893 5386
L1931 5424
L1968 5443
L2043 5461
L2099 5461
L2174 5443
L2212 5424
L2249 5386
L2268 5330
L2268 5236
" />
<path d="M2268 5836
L2268 5611
" />
<path d="M2268 5724
L1874 5724
L1931 5686
L1968 5649
L1987 5611
" />
<path d="M2268 2486
L1874 2486
L1874 2580
L1893 2636
L1931 2674
L1968 2693
L2043 2711
L2099 2711
L2174 2693
L2212 2674
L2249 2636
L2268 2580
L2268 2486
" />
<path d="M1912 2861
L1893 2880
L1874 2918
L1874 3011
L1893 3049
L1912 3068
L1949 3086
L1987 3086
L2043 3068
L2268 2843
L2268 3086
" />
</g>
<g style="fill:#840000; fill-opacity:0.0; 
stroke:#840000; stroke-width:39.3701; stroke-opacity:1; 
stroke-linecap:round; stroke-linejoin:round;">
<path d="M3265 1981
L3133 1889
" />
<path d="M3265 1824
L2989 1824
L2989 1929
L3002 1955
L3015 1968
L3042 1981
L3081 1981
L3107 1968
L3120 1955
L3133 1929
L3133 1824
" />
<path d="M3265 2244
L3265 2086
" />
<path d="M3265 2165
L2989 2165
L3029 2139
L3055 2112
L3068 2086
" />
<path d="M4215 3981
L4083 3889
" />
<path d="M4215 3824
L3939 3824
L3939 3929
L3952 3955
L3965 3968
L3992 3981
L4031 3981
L4057 3968
L4070 3955
L4083 3929
L4083 3824
" />
<path d="M4031 4217
L4215 4217
" />
<path d="M3926 4152
L4123 4086
L4123 4257
" />
<path d="M3265 3981
L3133 3889
" />
<path d="M3265 3824
L2989 3824
L2989 3929
L3002 3955
L3015 3968
L3042 3981
L3081 3981
L3107 3968
L3120 3955
L3133 3929
L3133 3824
" />
<path d="M3015 4086
L3002 4099
L2989 4125
L2989 4191
L3002 4217
L3015 4230
L3042 4244
L3068 4244
L3107 4230
L3265 4073
L3265 4244
" />
<path d="M4215 1981
L4083 1889
" />
<path d="M4215 1824
L3939 1824
L3939 1929
L3952 1955
L3965 1968
L3992 1981
L4031 1981
L4057 1968
L4070 1955
L4083 1929
L4083 1824
" />
<path d="M3939 2073
L3939 2244
L4044 2152
L4044 2191
L4057 2217
L4070 2230
L4097 2244
L4162 2244
L4188 2230
L4202 2217
L4215 2191
L4215 2112
L4202 2086
L4188 2073
" />
</g>
<g style="fill:#840000; fill-opacity:0.0; 
stroke:#840000; stroke-width:39.3701; stroke-opacity:1; 
stroke-linecap:round; stroke-linejoin:round;">
</g>
<g style="fill:#840000; fill-opacity:1.0; 
stroke:#840000; stroke-width:39.3701; stroke-opacity:1; 
stroke-linecap:round; stroke-linejoin:round;">
<circle cx="1340.55" cy="3777.56" r="310.315" /> 
<circle cx="1340.55" cy="4777.56" r="310.315" /> 
<circle cx="1340.55" cy="1027.56" r="310.315" /> 
<circle cx="1340.55" cy="2027.56" r="310.315" /> 
<polyline style="fill-rule:evenodd;"
points="6670,6197
6670,5357
7510,5357
7510,6197
6670,6197
" /> 
<polyline style="fill-rule:evenodd;"
points="6710,1157
6710,397
7470,397
7470,1157
6710,1157
" /> 
</g>
<g style="fill:#840000; fill-opacity:1.0; 
stroke:#840000; stroke-width:800; stroke-opacity:1; 
stroke-linecap:round; stroke-linejoin:round;">
</g>
<g style="fill:#840000; fill-opacity:0.0; 
stroke:#840000; stroke-width:800; stroke-opacity:1; 
stroke-linecap:round; stroke-linejoin:round;">
<path d="M7090 1777
L7090 1777
" />
</g>
<g style="fill:#008400; fill-opacity:0.0; 
stroke:#008400; stroke-width:39.3701; stroke-opacity:1; 
stroke-linecap:round; stroke-linejoin:round;">
</g>
<g style="fill:#008400; fill-opacity:1.0; 
stroke:#008400; stroke-width:39.3701; stroke-opacity:1; 
stroke-linecap:round; stroke-linejoin:round;">
<polyline style="fill-rule:evenodd;"
points="2433,1653
2748,1653
2748,1811
2433,1811
2433,1653
" /> 
<polyline style="fill-rule:evenodd;"
points="2433,2244
2748,2244
2748,2401
2433,2401
2433,2244
" /> 
<polyline style="fill-rule:evenodd;"
points="4433,3653
4748,3653
4748,3811
4433,3811
4433,3653
" /> 
<polyline style="fill-rule:evenodd;"
points="4433,4244
4748,4244
4748,4401
4433,4401
4433,4244
" /> 
<polyline style="fill-rule:evenodd;"
points="2433,3653
2748,3653
2748,3811
2433,3811
2433,3653
" /> 
<polyline style="fill-rule:evenodd;"
points="2433,4244
2748,4244
2748,4401
2433,4401
2433,4244
" /> 
<polyline style="fill-rule:evenodd;"
points="4433,1653
4748,1653
4748,1811
4433,1811
4433,1653
" /> 
<polyline style="fill-rule:evenodd;"
points="4433,2244
4748,2244
4748,2401
4433,2401
4433,2244
" /> 
</g>
<g style="fill:#C2C2C2; fill-opacity:1.0; 
stroke:#C2C2C2; stroke-width:39.3701; stroke-opacity:1; 
stroke-linecap:round; stroke-linejoin:round;">
<circle cx="3090.55" cy="777.559" r="216.535" /> 
<circle cx="4590.55" cy="5777.56" r="216.535" /> 
<circle cx="3590.55" cy="5027.56" r="216.535" /> 
<circle cx="7090.55" cy="3527.56" r="216.535" /> 
<circle cx="5340.55" cy="1527.56" r="216.535" /> 
</g>
<g style="fill:#008400; fill-opacity:1.0; 
stroke:#008400; stroke-width:393.701; stroke-opacity:1; 
stroke-linecap:round; stroke-linejoin:round;">
</g>
<g style="fill:#008400; fill-opacity:0.0; 
stroke:#008400; stroke-width:393.701; stroke-opacity:1; 
stroke-linecap:round; stroke-linejoin:round;">
<path d="M4590 777
L3090 777
" />
<path d="M5590 777
L4590 777
" />
<path d="M7090 777
L5590 777
" />
<path d="M4590 1732
L4590 777
" />
<path d="M2590 777
L3090 777
" />
<path d="M2590 1732
L2590 777
" />
<path d="M6340 1777
L6090 2027
" />
<path d="M6090 2027
L6090 5777
" />
<path d="M6090 5777
L4590 5777
" />
<path d="M7090 1777
L6340 1777
" />
<path d="M4590 4277
L4590 4322
" />
<path d="M4590 5777
L4590 4277
" />
<path d="M2590 4277
L2590 4322
" />
<path d="M2590 5777
L2590 4277
" />
<path d="M4590 5777
L2590 5777
" />
</g>
<g style="fill:#008400; fill-opacity:0.0; 
stroke:#008400; stroke-width:236.22; stroke-opacity:1; 
stroke-linecap:round; stroke-linejoin:round;">
<path d="M2590 3027
L2590 3732
" />
<path d="M2590 2322
L2590 3027
" />
<path d="M3590 3027
L3590 5027
" />
<path d="M2590 3027
L3590 3027
" />
</g>
<g style="fill:#008400; fill-opacity:0.0; 
stroke:#008400; stroke-width:393.701; stroke-opacity:1; 
stroke-linecap:round; stroke-linejoin:round;">
<path d="M7090 5777
L7090 3527
" />
</g>
<g style="fill:#008400; fill-opacity:0.0; 
stroke:#008400; stroke-width:236.22; stroke-opacity:1; 
stroke-linecap:round; stroke-linejoin:round;">
<path d="M4590 3027
L4590 3732
" />
<path d="M4590 2322
L4590 3027
" />
<path d="M5340 3027
L5340 1527
" />
<path d="M4590 3027
L5340 3027
" />
</g>
<g style="fill:#FFFFFF; fill-opacity:0.0; 
stroke:#FFFFFF; stroke-width:39.3701; stroke-opacity:1; 
stroke-linecap:round; stroke-linejoin:round;">
</g>
<g style="fill:#FFFFFF; fill-opacity:1.0; 
stroke:#FFFFFF; stroke-width:39.3701; stroke-opacity:1; 
stroke-linecap:round; stroke-linejoin:round;">
<circle cx="3090.55" cy="777.559" r="59.0551" /> 
<circle cx="4590.55" cy="5777.56" r="59.0551" /> 
<circle cx="3590.55" cy="5027.56" r="59.0551" /> 
<circle cx="7090.55" cy="3527.56" r="59.0551" /> 
<circle cx="5340.55" cy="1527.56" r="59.0551" /> 
<circle cx="1340.55" cy="3777.56" r="140.315" /> 
<circle cx="1340.55" cy="4777.56" r="140.315" /> 
<circle cx="1340.55" cy="1027.56" r="140.315" /> 
<circle cx="1340.55" cy="2027.56" r="140.315" /> 
<circle cx="7090.55" cy="5777.56" r="180.315" /> 
<circle cx="7090.55" cy="777.559" r="180.315" /> 
<circle cx="7090.55" cy="1777.56" r="180.315" /> 
</g>
<g style="fill:#840000; fill-opacity:1.0; 
stroke:#840000; stroke-width:39.3701; stroke-opacity:1; 
stroke-linecap:round; stroke-linejoin:round;">
<circle cx="1340.55" cy="3777.56" r="310.315" /> 
<circle cx="1340.55" cy="4777.56" r="310.315" /> 
<circle cx="1340.55" cy="1027.56" r="310.315" /> 
<circle cx="1340.55" cy="2027.56" r="310.315" /> 
<polyline style="fill-rule:evenodd;"
points="6670,6197
6670,5357
7510,5357
7510,6197
6670,6197
" /> 
</g>
<g style="fill:#840000; fill-opacity:1.0; 
stroke:#840000; stroke-width:240; stroke-opacity:1; 
stroke-linecap:round; stroke-linejoin:round;">
</g>
<g style="fill:#840000; fill-opacity:0.0; 
stroke:#840000; stroke-width:240; stroke-opacity:1; 
stroke-linecap:round; stroke-linejoin:round;">
<path d="M3090 3957
L3090 4297
" />
<path d="M3590 3957
L3590 4297
" />
<path d="M4090 3957
L4090 4297
" />
<path d="M4590 3957
L4590 4297
" />
<path d="M4590 1757
L4590 2097
" />
<path d="M4090 1757
L4090 2097
" />
<path d="M3590 1757
L3590 2097
" />
<path d="M3090 1757
L3090 2097
" />
</g>
<g style="fill:#840000; fill-opacity:0.0; 
stroke:#840000; stroke-width:39.3701; stroke-opacity:1; 
stroke-linecap:round; stroke-linejoin:round;">
</g>
<g style="fill:#840000; fill-opacity:1.0; 
stroke:#840000; stroke-width:39.3701; stroke-opacity:1; 
stroke-linecap:round; stroke-linejoin:round;">
<polyline style="fill-rule:evenodd;"
points="6710,1157
6710,397
7470,397
7470,1157
6710,1157
" /> 
</g>
<g style="fill:#840000; fill-opacity:1.0; 
stroke:#840000; stroke-width:800; stroke-opacity:1; 
stroke-linecap:round; stroke-linejoin:round;">
</g>
<g style="fill:#840000; fill-opacity:0.0; 
stroke:#840000; stroke-width:800; stroke-opacity:1; 
stroke-linecap:round; stroke-linejoin:round;">
<path d="M7090 1777
L7090 1777
" />
</g>
<g style="fill:#840000; fill-opacity:0.0; 
stroke:#840000; stroke-width:39.3701; stroke-opacity:1; 
stroke-linecap:round; stroke-linejoin:round;">
</g>
<g style="fill:#840000; fill-opacity:1.0; 
stroke:#840000; stroke-width:39.3701; stroke-opacity:1; 
stroke-linecap:round; stroke-linejoin:round;">
<polyline style="fill-rule:evenodd;"
points="5216,3685
5216,3370
5374,3370
5374,3685
5216,3685
" /> 
<polyline style="fill-rule:evenodd;"
points="5807,3685
5807,3370
5964,3370
5964,3685
5807,3685
" /> 
<polyline style="fill-rule:evenodd;"
points="5216,2685
5216,2370
5374,2370
5374,2685
5216,2685
" /> 
<polyline style="fill-rule:evenodd;"
points="5807,2685
5807,2370
5964,2370
5964,2685
5807,2685
" /> 
<polyline style="fill-rule:evenodd;"
points="3216,6185
3216,5870
3374,5870
3374,6185
3216,6185
" /> 
<polyline style="fill-rule:evenodd;"
points="3807,6185
3807,5870
3964,5870
3964,6185
3807,6185
" /> 
<polyline style="fill-rule:evenodd;"
points="3716,685
3716,370
3874,370
3874,685
3716,685
" /> 
<polyline style="fill-rule:evenodd;"
points="4307,685
4307,370
4464,370
4464,685
4307,685
" /> 
<polyline style="fill-rule:evenodd;"
points="1716,5685
1716,5370
1874,5370
1874,5685
1716,5685
" /> 
<polyline style="fill-rule:evenodd;"
points="2307,5685
2307,5370
2464,5370
2464,5685
2307,5685
" /> 
<polyline style="fill-rule:evenodd;"
points="1716,2935
1716,2620
1874,2620
1874,2935
1716,2935
" /> 
<polyline style="fill-rule:evenodd;"
points="2307,2935
2307,2620
2464,2620
2464,2935
2307,2935
" /> 
</g>
<g style="fill:#C2C2C2; fill-opacity:1.0; 
stroke:#C2C2C2; stroke-width:39.3701; stroke-opacity:1; 
stroke-linecap:round; stroke-linejoin:round;">
<circle cx="3090.55" cy="777.559" r="216.535" /> 
<circle cx="4590.55" cy="5777.56" r="216.535" /> 
<circle cx="3590.55" cy="5027.56" r="216.535" /> 
<circle cx="7090.55" cy="3527.56" r="216.535" /> 
<circle cx="5340.55" cy="1527.56" r="216.535" /> 
</g>
<g style="fill:#840000; fill-opacity:1.0; 
stroke:#840000; stroke-width:393.701; stroke-opacity:1; 
stroke-linecap:round; stroke-linejoin:round;">
</g>
<g style="fill:#840000; fill-opacity:0.0; 
stroke:#840000; stroke-width:393.701; stroke-opacity:1; 
stroke-linecap:round; stroke-linejoin:round;">
<path d="M1340 1027
L590 1777
" />
<path d="M1340 1027
L1590 777
" />
<path d="M590 1777
L590 3027
" />
<path d="M590 3027
L1340 3777
" />
<path d="M1590 777
L3090 777
" />
<path d="M3090 1927
L3090 777
" />
<path d="M1340 5527
L1795 5527
" />
<path d="M1340 4777
L1340 5527
" />
<path d="M1340 2777
L1795 2777
" />
<path d="M1340 2027
L1340 2777
" />
<path d="M4590 5777
L4590 4127
" />
</g>
<g style="fill:#840000; fill-opacity:0.0; 
stroke:#840000; stroke-width:236.22; stroke-opacity:1; 
stroke-linecap:round; stroke-linejoin:round;">
<path d="M3590 5027
L3590 4127
" />
<path d="M6590 3027
L6590 3527
" />
<path d="M6590 2527
L6590 3027
" />
<path d="M6590 3527
L5885 3527
" />
<path d="M5885 2527
L6590 2527
" />
</g>
<g style="fill:#840000; fill-opacity:0.0; 
stroke:#840000; stroke-width:393.701; stroke-opacity:1; 
stroke-linecap:round; stroke-linejoin:round;">
<path d="M7090 3527
L6590 3527
" />
</g>
<g style="fill:#840000; fill-opacity:0.0; 
stroke:#840000; stroke-width:236.22; stroke-opacity:1; 
stroke-linecap:round; stroke-linejoin:round;">
<path d="M4590 527
L4385 527
" />
<path d="M4590 1527
L4590 527
" />
<path d="M4590 1927
L4590 1527
" />
<path d="M5340 1527
L4590 1527
" />
<path d="M4090 3527
L4090 4127
" />
<path d="M5295 3527
L4090 3527
" />
<path d="M4090 6027
L3885 6027
" />
<path d="M4090 4127
L4090 6027
" />
<path d="M4090 1927
L4090 1527
" />
<path d="M4090 2527
L4090 1927
" />
<path d="M5295 2527
L4090 2527
" />
<path d="M3090 6027
L3295 6027
" />
<path d="M3090 5527
L3090 6027
" />
<path d="M3090 4127
L3090 5527
" />
<path d="M2385 5527
L3090 5527
" />
<path d="M3590 2777
L3590 1927
" />
<path d="M2385 2777
L3590 2777
" />
<path d="M3590 527
L3795 527
" />
<path d="M3590 1927
L3590 527
" />
</g>
<g style="fill:#FFFFFF; fill-opacity:0.0; 
stroke:#FFFFFF; stroke-width:39.3701; stroke-opacity:1; 
stroke-linecap:round; stroke-linejoin:round;">
</g>
<g style="fill:#FFFFFF; fill-opacity:1.0; 
stroke:#FFFFFF; stroke-width:39.3701; stroke-opacity:1; 
stroke-linecap:round; stroke-linejoin:round;">
<circle cx="3090.55" cy="777.559" r="59.0551" /> 
<circle cx="4590.55" cy="5777.56" r="59.0551" /> 
<circle cx="3590.55" cy="5027.56" r="59.0551" /> 
<circle cx="7090.55" cy="3527.56" r="59.0551" /> 
<circle cx="5340.55" cy="1527.56" r="59.0551" /> 
<circle cx="1340.55" cy="3777.56" r="140.315" /> 
<circle cx="1340.55" cy="4777.56" r="140.315" /> 
<circle cx="1340.55" cy="1027.56" r="140.315" /> 
<circle cx="1340.55" cy="2027.56" r="140.315" /> 
<circle cx="7090.55" cy="5777.56" r="180.315" /> 
<circle cx="7090.55" cy="777.559" r="180.315" /> 
<circle cx="7090.55" cy="1777.56" r="180.315" /> 
</g>
<g style="fill:#008484; fill-opacity:1.0; 
stroke:#008484; stroke-width:59.0551; stroke-opacity:1; 
stroke-linecap:round; stroke-linejoin:round;">
</g>
<g style="fill:#008484; fill-opacity:0.0; 
stroke:#008484; stroke-width:59.0551; stroke-opacity:1; 
stroke-linecap:round; stroke-linejoin:round;">
<path d="M6578 5167
L6578 5777
" />
<path d="M7090 5167
L6578 5167
" />
<path d="M8740 5727
L11040 5727
" />
<path d="M11040 5727
L11040 5827
" />
<path d="M11040 5827
L8740 5827
" />
<path d="M8740 5827
L8740 5777
" />
<path d="M8740 5777
L11040 5777
" />
<path d="M7690 5877
L7590 5877
" />
<path d="M7690 5677
L7590 5677
" />
<path d="M7690 5277
L8690 5277
" />
<path d="M7690 5277
L7690 6277
" />
<path d="M7690 6277
L8690 6277
" />
<path d="M8690 5677
L11090 5677
" />
<path d="M11090 5677
L11090 5877
" />
<path d="M11090 5877
L8690 5877
" />
<path d="M8690 6277
L8690 5277
" />
<circle cx="3090.55" cy="3327.56" r="50" /> 
<path d="M2840 3577
L4840 3577
" />
<path d="M2840 2277
L4840 2277
" />
<path d="M2840 3777
L4840 3777
" />
<path d="M2840 3777
L2840 2277
" />
<path d="M4840 3777
L4840 2277
" />
<path d="M6578 167
L6578 777
" />
<path d="M7090 167
L6578 167
" />
<path d="M8740 727
L11040 727
" />
<path d="M11040 727
L11040 827
" />
<path d="M11040 827
L8740 827
" />
<path d="M8740 827
L8740 777
" />
<path d="M8740 777
L11040 777
" />
<path d="M7690 677
L7540 677
" />
<path d="M7690 877
L7540 877
" />
<path d="M7690 1677
L7540 1677
" />
<path d="M7690 1877
L7540 1877
" />
<path d="M7690 277
L8690 277
" />
<path d="M7690 1277
L8690 1277
" />
<path d="M7690 1277
L7690 2277
" />
<path d="M7690 2277
L8690 2277
" />
<path d="M8690 1677
L11090 1677
" />
<path d="M11090 1677
L11090 1877
" />
<path d="M11090 1877
L8690 1877
" />
<path d="M8690 2277
L8690 1277
" />
<path d="M8690 1277
L8690 277
" />
<path d="M11090 877
L8690 877
" />
<path d="M11090 677
L11090 877
" />
<path d="M8690 677
L11090 677
" />
<path d="M7690 1277
L8690 1277
" />
<path d="M7690 277
L7690 1277
" />
<path d="M5787 3793
L5393 3793
" />
<path d="M5393 3261
L5787 3261
" />
<path d="M5787 2793
L5393 2793
" />
<path d="M5393 2261
L5787 2261
" />
<path d="M3787 6293
L3393 6293
" />
<path d="M3393 5761
L3787 5761
" />
<path d="M4287 793
L3893 793
" />
<path d="M3893 261
L4287 261
" />
<path d="M2287 5793
L1893 5793
" />
<path d="M1893 5261
L2287 5261
" />
<path d="M2287 3043
L1893 3043
" />
<path d="M1893 2511
L2287 2511
" />
</g>
<g style="fill:#C2C200; fill-opacity:0.0; 
stroke:#C2C200; stroke-width:59.0551; stroke-opacity:1; 
stroke-linecap:round; stroke-linejoin:round;">
<path d="M8368 4968
L7974 4968
L7974 4818
L7993 4780
L8012 4761
L8049 4743
L8106 4743
L8143 4761
L8162 4780
L8181 4818
L8181 4968
" />
<path d="M8012 4593
L7993 4574
L7974 4536
L7974 4443
L7993 4405
L8012 4386
L8049 4368
L8087 4368
L8143 4386
L8368 4611
L8368 4368
" />
</g>
<g style="fill:#C2C200; fill-opacity:0.0; 
stroke:#C2C200; stroke-width:39.3701; stroke-opacity:1; 
stroke-linecap:round; stroke-linejoin:round;">
<path d="M3630 3026
L3630 3249
L3643 3275
L3656 3289
L3683 3302
L3735 3302
L3761 3289
L3774 3275
L3788 3249
L3788 3026
" />
<path d="M4063 3302
L3906 3302
" />
<path d="M3984 3302
L3984 3026
L3958 3066
L3932 3092
L3906 3105
" />
</g>
<g style="fill:#C2C200; fill-opacity:0.0; 
stroke:#C2C200; stroke-width:59.0551; stroke-opacity:1; 
stroke-linecap:round; stroke-linejoin:round;">
<path d="M8368 3168
L7974 3168
L7974 3018
L7993 2980
L8012 2961
L8049 2943
L8106 2943
L8143 2961
L8162 2980
L8181 3018
L8181 3168
" />
<path d="M8368 2568
L8368 2793
" />
<path d="M8368 2680
L7974 2680
L8031 2718
L8068 2755
L8087 2793
" />
</g>
<g style="fill:#C2C200; fill-opacity:0.0; 
stroke:#C2C200; stroke-width:39.3701; stroke-opacity:1; 
stroke-linecap:round; stroke-linejoin:round;">
<path d="M5544 4202
L5452 4070
" />
<path d="M5387 4202
L5387 3926
L5492 3926
L5518 3939
L5531 3952
L5544 3979
L5544 4018
L5531 4044
L5518 4057
L5492 4070
L5387 4070
" />
<path d="M5793 3926
L5662 3926
L5649 4057
L5662 4044
L5688 4031
L5754 4031
L5780 4044
L5793 4057
L5807 4084
L5807 4149
L5793 4175
L5780 4189
L5754 4202
L5688 4202
L5662 4189
L5649 4175
" />
<path d="M5544 2152
L5452 2020
" />
<path d="M5387 2152
L5387 1876
L5492 1876
L5518 1889
L5531 1902
L5544 1929
L5544 1968
L5531 1994
L5518 2007
L5492 2020
L5387 2020
" />
<path d="M5780 1876
L5728 1876
L5702 1889
L5688 1902
L5662 1942
L5649 1994
L5649 2099
L5662 2125
L5675 2139
L5702 2152
L5754 2152
L5780 2139
L5793 2125
L5807 2099
L5807 2034
L5793 2007
L5780 1994
L5754 1981
L5702 1981
L5675 1994
L5662 2007
L5649 2034
" />
<path d="M3544 5652
L3452 5520
" />
<path d="M3387 5652
L3387 5376
L3492 5376
L3518 5389
L3531 5402
L3544 5429
L3544 5468
L3531 5494
L3518 5507
L3492 5520
L3387 5520
" />
<path d="M3636 5376
L3820 5376
L3702 5652
" />
<path d="M4044 1202
L3952 1070
" />
<path d="M3887 1202
L3887 926
L3992 926
L4018 939
L4031 952
L4044 979
L4044 1018
L4031 1044
L4018 1057
L3992 1070
L3887 1070
" />
<path d="M4202 1044
L4175 1031
L4162 1018
L4149 992
L4149 979
L4162 952
L4175 939
L4202 926
L4254 926
L4280 939
L4293 952
L4307 979
L4307 992
L4293 1018
L4280 1031
L4254 1044
L4202 1044
L4175 1057
L4162 1070
L4149 1097
L4149 1149
L4162 1175
L4175 1189
L4202 1202
L4254 1202
L4280 1189
L4293 1175
L4307 1149
L4307 1097
L4293 1070
L4280 1057
L4254 1044
" />
<path d="M2044 6202
L1952 6070
" />
<path d="M1887 6202
L1887 5926
L1992 5926
L2018 5939
L2031 5952
L2044 5979
L2044 6018
L2031 6044
L2018 6057
L1992 6070
L1887 6070
" />
<path d="M2175 6202
L2228 6202
L2254 6189
L2267 6175
L2293 6136
L2307 6084
L2307 5979
L2293 5952
L2280 5939
L2254 5926
L2202 5926
L2175 5939
L2162 5952
L2149 5979
L2149 6044
L2162 6070
L2175 6084
L2202 6097
L2254 6097
L2280 6084
L2293 6070
L2307 6044
" />
<path d="M1963 3452
L1871 3320
" />
<path d="M1805 3452
L1805 3176
L1910 3176
L1937 3189
L1950 3202
L1963 3229
L1963 3268
L1950 3294
L1937 3307
L1910 3320
L1805 3320
" />
<path d="M2225 3452
L2068 3452
" />
<path d="M2147 3452
L2147 3176
L2120 3216
L2094 3242
L2068 3255
" />
<path d="M2396 3176
L2422 3176
L2448 3189
L2462 3202
L2475 3229
L2488 3281
L2488 3347
L2475 3399
L2462 3425
L2448 3439
L2422 3452
L2396 3452
L2370 3439
L2357 3425
L2343 3399
L2330 3347
L2330 3281
L2343 3229
L2357 3202
L2370 3189
L2396 3176
" />
</g>
<g style="fill:#C2C200; fill-opacity:0.0; 
stroke:#C2C200; stroke-width:59.0551; stroke-opacity:1; 
stroke-linecap:round; stroke-linejoin:round;">
<path d="M8368 5955
L7974 5955
" />
<path d="M8106 5768
L8368 5768
" />
<path d="M8143 5768
L8124 5749
L8106 5711
L8106 5655
L8124 5618
L8162 5599
L8368 5599
" />
<path d="M8368 2055
L7974 2055
L7974 1905
L7993 1868
L8012 1849
L8049 1830
L8106 1830
L8143 1849
L8162 1868
L8181 1905
L8181 2055
" />
<path d="M8368 1605
L8349 1643
L8331 1661
L8293 1680
L8181 1680
L8143 1661
L8124 1643
L8106 1605
L8106 1549
L8124 1511
L8143 1493
L8181 1474
L8293 1474
L8331 1493
L8349 1511
L8368 1549
L8368 1605
" />
<path d="M8106 1343
L8368 1268
L8181 1193
L8368 1118
L8106 1043
" />
<path d="M8349 743
L8368 780
L8368 855
L8349 893
L8312 911
L8162 911
L8124 893
L8106 855
L8106 780
L8124 743
L8162 724
L8199 724
L8237 911
" />
<path d="M8368 555
L8106 555
" />
<path d="M8181 555
L8143 537
L8124 518
L8106 480
L8106 443
" />
</g>
<g style="fill:#C2C200; fill-opacity:0.0; 
stroke:#C2C200; stroke-width:39.3701; stroke-opacity:1; 
stroke-linecap:round; stroke-linejoin:round;">
<path d="M90 27
L8840 27
" />
<path d="M90 6527
L90 27
" />
<path d="M8840 6527
L90 6527
" />
<path d="M8840 27
L8840 6527
" />
</g> 
</svg>
